<?xml version="1.0" encoding="UTF-8"?>
<svg xmlns="http://www.w3.org/2000/svg" viewBox="0 0 1200 630" width="1200" height="630" role="img" aria-label="Codeflare Inference Mesh: private LLM inference on hardware you own.">
  <defs>
    <linearGradient id="bg" x1="0" y1="0" x2="0" y2="1">
      <stop offset="0" stop-color="#0a0a0c"/>
      <stop offset="1" stop-color="#101014"/>
    </linearGradient>
    <radialGradient id="glow" cx="0.15" cy="0.16" r="0.95">
      <stop offset="0" stop-color="#ff5c3c" stop-opacity="0.18"/>
      <stop offset="0.55" stop-color="#ff5c3c" stop-opacity="0"/>
    </radialGradient>
    <radialGradient id="mesh" cx="0.85" cy="0.82" r="0.5">
      <stop offset="0" stop-color="#ff5c3c" stop-opacity="0.10"/>
      <stop offset="1" stop-color="#ff5c3c" stop-opacity="0"/>
    </radialGradient>
  </defs>

  <rect width="1200" height="630" fill="url(#bg)"/>
  <rect width="1200" height="630" fill="url(#glow)"/>
  <rect width="1200" height="630" fill="url(#mesh)"/>

  <!-- Hub-and-spoke mesh motif, lower-right: one coral router hub, dashed links to status-dot nodes. -->
  <g stroke="#ff5c3c" stroke-opacity="0.5" stroke-width="2" stroke-dasharray="3 6" fill="none">
    <path d="M980,470 L860,368"/>
    <path d="M980,470 L1112,372"/>
    <path d="M980,470 L858,556"/>
    <path d="M980,470 L1120,556"/>
    <path d="M980,470 L980,342"/>
  </g>
  <circle cx="980" cy="470" r="15" fill="#ff5c3c"/>
  <circle cx="860" cy="368" r="8" fill="#fafafa"/>
  <circle cx="1112" cy="372" r="8" fill="#fafafa"/>
  <circle cx="858" cy="556" r="8" fill="#a1a1aa"/>
  <circle cx="1120" cy="556" r="8" fill="#fafafa"/>
  <circle cx="980" cy="342" r="8" fill="#71717a"/>

  <!-- Brand lockup: the Codeflare code-glyph mark (coral tile, dark glyph) + wordmark with product suffix. -->
  <rect x="80" y="56" width="64" height="64" rx="15" fill="#ff5c3c"/>
  <g transform="translate(92,68) scale(1.667)">
    <path d="M12.89,3L14.85,3.4L11.11,21L9.15,20.6L12.89,3M19.59,12L16,8.41V5.58L22.42,12L16,18.41V15.58L19.59,12M1.58,12L8,5.58V8.41L4.41,12L8,15.58V18.41L1.58,12Z" fill="#0a0a0c"/>
  </g>
  <text x="164" y="100" font-family="JetBrains Mono, monospace" font-size="34" font-weight="700" fill="#fafafa" letter-spacing="-1">codeflare<tspan fill="#a1a1aa" font-weight="400"> / inference mesh</tspan></text>

  <!-- Main block: one font (JetBrains Mono), three sizes (52 headline / 34 wordmark / 20 the rest). -->
  <text x="80" y="236" font-family="JetBrains Mono, monospace" font-size="20" font-weight="600" fill="#ff5c3c" letter-spacing="3">NO DEDICATED GPU RACKS</text>
  <text x="80" y="306" font-family="JetBrains Mono, monospace" font-size="52" font-weight="700" fill="#fafafa" letter-spacing="-1.6">Private LLM inference</text>
  <text x="80" y="370" font-family="JetBrains Mono, monospace" font-size="52" font-weight="700" fill="#fafafa" letter-spacing="-1.6">on hardware you own.</text>
  <text x="80" y="424" font-family="JetBrains Mono, monospace" font-size="20" font-weight="400" fill="#a1a1aa" letter-spacing="0">One OpenAI-compatible endpoint over machines you already run.</text>
  <text x="80" y="454" font-family="JetBrains Mono, monospace" font-size="20" font-weight="400" fill="#a1a1aa" letter-spacing="0">Private nodes on your network. Failover to any provider.</text>

  <!-- Foot: separated by space, no rule. -->
  <text x="80" y="588" font-family="JetBrains Mono, monospace" font-size="20" font-weight="600" fill="#fafafa" letter-spacing="3">CODEFLARE.CH</text>
  <text x="1120" y="588" text-anchor="end" font-family="JetBrains Mono, monospace" font-size="20" font-weight="400" fill="#71717a" letter-spacing="2">GRAY MATTER GMBH</text>
</svg>
