<?xml version="1.0" encoding="UTF-8"?>
<svg xmlns="http://www.w3.org/2000/svg" viewBox="0 0 1200 630" width="1200" height="630" role="img" aria-label="Codeflare Inference Mesh: private LLM inference on hardware you already own.">
  <defs>
    <linearGradient id="bg" x1="0" y1="0" x2="0" y2="1">
      <stop offset="0" stop-color="#0a0a0c"/>
      <stop offset="1" stop-color="#101014"/>
    </linearGradient>
    <radialGradient id="glow" cx="0.15" cy="0.16" r="0.95">
      <stop offset="0" stop-color="#ff5c3c" stop-opacity="0.18"/>
      <stop offset="0.55" stop-color="#ff5c3c" stop-opacity="0"/>
    </radialGradient>
    <radialGradient id="mesh" cx="0.82" cy="0.5" r="0.42">
      <stop offset="0" stop-color="#ff5c3c" stop-opacity="0.12"/>
      <stop offset="1" stop-color="#ff5c3c" stop-opacity="0"/>
    </radialGradient>
  </defs>

  <rect width="1200" height="630" fill="url(#bg)"/>
  <rect width="1200" height="630" fill="url(#glow)"/>
  <rect width="1200" height="630" fill="url(#mesh)"/>

  <!-- Irregular curved spider-web motif: bowed spokes + inward-sagging cross-threads that curve away from the text. -->
  <g stroke="#ff5c3c" fill="none" stroke-linecap="round">
    <path d="M1000,315 Q936.7,271.2 890,210" stroke-opacity="0.5" stroke-width="1.8"/>
    <path d="M1000,315 Q1052.5,242.9 1080,158" stroke-opacity="0.5" stroke-width="1.8"/>
    <path d="M1000,315 Q1079.3,291.6 1162,292" stroke-opacity="0.5" stroke-width="1.8"/>
    <path d="M1000,315 Q1067.5,374.3 1150,410" stroke-opacity="0.5" stroke-width="1.8"/>
    <path d="M1000,315 Q1031.7,400.9 1040,492" stroke-opacity="0.5" stroke-width="1.8"/>
    <path d="M1000,315 Q938.7,375.2 900,452" stroke-opacity="0.5" stroke-width="1.8"/>
    <path d="M1000,315 Q929.4,335.4 856,332" stroke-opacity="0.5" stroke-width="1.8"/>
    <path d="M890,210 Q988.9,217.8 1080,158" stroke-opacity="0.42" stroke-width="1.5"/>
    <path d="M1080,158 Q1093.7,245.3 1162,292" stroke-opacity="0.42" stroke-width="1.5"/>
    <path d="M1162,292 Q1122.9,343.4 1150,410" stroke-opacity="0.42" stroke-width="1.5"/>
    <path d="M1150,410 Q1075.5,423.1 1040,492" stroke-opacity="0.42" stroke-width="1.5"/>
    <path d="M1040,492 Q976.4,438.6 900,452" stroke-opacity="0.42" stroke-width="1.5"/>
    <path d="M900,452 Q906.8,373.9 856,332" stroke-opacity="0.42" stroke-width="1.5"/>
    <path d="M856,332 Q905.1,282.1 890,210" stroke-opacity="0.42" stroke-width="1.5"/>
    <path d="M945,262.5 Q1005.5,301.5 1081,303.5" stroke-opacity="0.3" stroke-width="1.3" stroke-dasharray="2 5"/>
    <path d="M1081,303.5 Q1034.6,341.4 1020,403.5" stroke-opacity="0.3" stroke-width="1.3" stroke-dasharray="2 5"/>
    <path d="M1020,403.5 Q983.4,345.9 928,323.5" stroke-opacity="0.3" stroke-width="1.3" stroke-dasharray="2 5"/>
    <path d="M928,323.5 Q955.4,299.5 945,262.5" stroke-opacity="0.3" stroke-width="1.3" stroke-dasharray="2 5"/>
    <path d="M1000,315 Q972.5,288.8 945,262.5" stroke-opacity="0.28" stroke-width="1.2"/>
    <path d="M1000,315 Q1040.5,309.3 1081,303.5" stroke-opacity="0.28" stroke-width="1.2"/>
    <path d="M1000,315 Q1010,359.3 1020,403.5" stroke-opacity="0.28" stroke-width="1.2"/>
    <path d="M1000,315 Q964,319.3 928,323.5" stroke-opacity="0.28" stroke-width="1.2"/>
  </g>
  <circle cx="890" cy="210" r="7" fill="#e4e4e7"/>
  <circle cx="1080" cy="158" r="7" fill="#e4e4e7"/>
  <circle cx="1162" cy="292" r="7" fill="#e4e4e7"/>
  <circle cx="1150" cy="410" r="7" fill="#e4e4e7"/>
  <circle cx="1040" cy="492" r="7" fill="#e4e4e7"/>
  <circle cx="900" cy="452" r="7" fill="#e4e4e7"/>
  <circle cx="856" cy="332" r="7" fill="#e4e4e7"/>
  <circle cx="945" cy="262.5" r="3.5" fill="#a1a1aa"/>
  <circle cx="1081" cy="303.5" r="3.5" fill="#a1a1aa"/>
  <circle cx="1020" cy="403.5" r="3.5" fill="#a1a1aa"/>
  <circle cx="928" cy="323.5" r="3.5" fill="#a1a1aa"/>
  <circle cx="1000" cy="315" r="16" fill="#ff5c3c"/>

  <!-- Brand lockup: the Codeflare code-glyph mark (coral tile, dark glyph) + wordmark with product suffix. -->
  <rect x="80" y="56" width="64" height="64" rx="15" fill="#ff5c3c"/>
  <g transform="translate(92,68) scale(1.667)">
    <path d="M12.89,3L14.85,3.4L11.11,21L9.15,20.6L12.89,3M19.59,12L16,8.41V5.58L22.42,12L16,18.41V15.58L19.59,12M1.58,12L8,5.58V8.41L4.41,12L8,15.58V18.41L1.58,12Z" fill="#0a0a0c"/>
  </g>
  <text x="164" y="100" font-family="JetBrains Mono, monospace" font-size="34" font-weight="700" fill="#fafafa" letter-spacing="-1">codeflare<tspan fill="#a1a1aa" font-weight="400"> / inference mesh</tspan></text>

  <!-- Main block: one font (JetBrains Mono), three sizes (52 headline / 34 wordmark / 20 the rest). -->
  <text x="80" y="236" font-family="JetBrains Mono, monospace" font-size="20" font-weight="600" fill="#ff5c3c" letter-spacing="3">NO DEDICATED HARDWARE</text>
  <text x="80" y="300" font-family="JetBrains Mono, monospace" font-size="44" font-weight="700" fill="#fafafa" letter-spacing="-0.5">Private LLM inference</text>
  <text x="80" y="356" font-family="JetBrains Mono, monospace" font-size="44" font-weight="700" fill="#fafafa" letter-spacing="-0.5">on hardware you already own.</text>
  <text x="80" y="424" font-family="JetBrains Mono, monospace" font-size="20" font-weight="400" fill="#a1a1aa" letter-spacing="0">Untapped resources sitting idle in your device fleet.</text>
  <text x="80" y="454" font-family="JetBrains Mono, monospace" font-size="20" font-weight="400" fill="#a1a1aa" letter-spacing="0">Shard large models across the inference fabric.</text>

  <!-- Foot: separated by space, no rule. -->
  <text x="80" y="588" font-family="JetBrains Mono, monospace" font-size="20" font-weight="600" fill="#fafafa" letter-spacing="3">CODEFLARE.CH</text>
  <text x="1120" y="588" text-anchor="end" font-family="JetBrains Mono, monospace" font-size="20" font-weight="400" fill="#a1a1aa" letter-spacing="2">GRAY MATTER GMBH</text>
</svg>
